<svg width="89" height="172" viewBox="0 0 89 172" fill="none" xmlns="http://www.w3.org/2000/svg">
<path d="M98.7803 171.652C92.4512 170.081 88.5615 166.037 86.1032 161.08C83.6468 156.126 82.6176 150.258 82.0054 145.027C81.6993 142.413 81.4967 139.949 81.2734 137.845C81.0497 135.735 80.8049 133.986 80.4159 132.779C80.2211 132.176 79.9933 131.718 79.7214 131.419C79.453 131.125 79.1428 130.986 78.7702 131.013C78.3909 131.041 77.9344 131.242 77.3822 131.659C76.8313 132.074 76.1938 132.697 75.454 133.556L75.306 133.428C76.0505 132.565 76.6982 131.93 77.2646 131.503C77.8297 131.077 78.3224 130.85 78.756 130.819C79.1963 130.786 79.5627 130.955 79.8657 131.288C80.1651 131.617 80.4036 132.105 80.6016 132.719C80.9978 133.948 81.2439 135.717 81.4676 137.824C81.6917 139.937 81.8932 142.39 82.1992 145.004C82.811 150.231 83.8374 156.071 86.2781 160.993C88.7171 165.911 92.566 169.909 98.8274 171.462L98.7803 171.652ZM75.454 133.556C74.7993 134.315 74.128 134.813 73.4442 135.069C72.7591 135.325 72.0671 135.336 71.3773 135.131C70.0035 134.723 68.6443 133.459 67.3392 131.59C64.7257 127.848 62.283 121.613 60.3513 114.634L60.5395 114.582C62.4696 121.555 64.9053 127.765 67.4991 131.478C68.7975 133.338 70.1245 134.555 71.4329 134.944C72.0843 135.138 72.7325 135.127 73.3759 134.886C74.0206 134.645 74.6664 134.171 75.306 133.428L75.454 133.556ZM60.3513 114.634C57.8522 105.606 56.2034 95.3152 56.1508 87.5331C56.1245 83.6441 56.4967 80.3705 57.3679 78.1929C57.8038 77.1037 58.3683 76.2789 59.0798 75.7923C59.7954 75.3031 60.6492 75.163 61.6433 75.424L61.5937 75.6127C60.6476 75.3644 59.8534 75.4999 59.1901 75.9535C58.5227 76.4097 57.9775 77.1952 57.5492 78.2655C56.6925 80.4066 56.3199 83.6492 56.346 87.5319C56.3984 95.2928 58.0437 105.566 60.5395 114.582L60.3513 114.634ZM13.526 61.0857C19.2949 49.942 20.9752 42.553 20.5641 37.254C20.1534 31.961 17.6552 28.7382 15.0212 25.925C13.7064 24.5204 12.3494 23.21 11.2123 21.8013C10.0732 20.3898 9.14695 18.8706 8.68921 17.0369C7.77295 13.3678 8.73977 8.47356 13.5295 0.707214L13.6956 0.809693C8.91447 8.56199 7.98181 13.3982 8.87855 16.9897C9.32712 18.7863 10.2356 20.2801 11.3644 21.6787C12.4954 23.08 13.8393 24.3769 15.1637 25.7915C17.8089 28.6168 20.3429 31.8802 20.7587 37.2389C21.1739 42.5913 19.4749 50.0191 13.6994 61.1755L13.526 61.0857ZM61.6433 75.424C63.8399 76.0006 65.4071 77.6543 66.387 80.0685C67.3659 82.4808 67.7622 85.6602 67.6174 89.3113C67.3275 96.6149 64.8711 105.834 60.533 114.651L60.3578 114.565C64.6865 105.767 67.1339 96.5747 67.4224 89.3037C67.5666 85.6676 67.1708 82.519 66.2061 80.1419C65.2422 77.7665 63.7142 76.1692 61.5937 75.6127L61.6433 75.424ZM60.533 114.651C55.3806 125.123 47.5672 135.041 37.5584 140.508L37.4647 140.337C47.4265 134.895 55.2162 125.015 60.3578 114.565L60.533 114.651ZM37.5584 140.508C27.9404 145.762 20.1669 146.229 14.283 143.244C8.40247 140.26 4.43916 133.842 2.40598 125.392C-1.66078 108.493 1.97362 83.4007 13.526 61.0857L13.6994 61.1755C2.16277 83.4601 -1.45738 108.504 2.59571 125.347C4.62226 133.768 8.56252 140.122 14.3714 143.07C20.1768 146.016 27.8787 145.574 37.4647 140.337L37.5584 140.508Z" fill="#151515"/>
</svg>
